<!DOCTYPE svg PUBLIC "-//W3C//DTD SVG 20010904//EN" "http://www.w3.org/TR/2001/REC-SVG-20010904/DTD/svg10.dtd">
<svg version="1.0" xmlns="http://www.w3.org/2000/svg" width="1217px" height="250px" viewBox="0 0 12170 2500" preserveAspectRatio="xMidYMid meet">
<g id="layer1" fill="#000000" stroke="none">
 <path d="M1215 2274 c-11 -3 -60 -14 -110 -25 -93 -22 -271 -100 -335 -148 -195 -146 -317 -310 -386 -521 -144 -435 11 -902 386 -1170 65 -47 176 -101 265 -131 318 -106 693 -35 950 181 285 239 424 613 360 965 -51 282 -186 497 -425 676 -61 46 -241 126 -335 150 -87 21 -316 36 -370 23z m344 -215 c65 -17 171 -63 236 -102 32 -19 137 -109 173 -147 50 -54 115 -158 144 -230 29 -71 48 -128 48 -141 0 -5 -31 -9 -70 -9 l-70 0 0 -175 0 -175 70 0 c39 0 70 -3 70 -7 0 -17 -32 -111 -50 -150 -11 -24 -20 -45 -20 -48 0 -12 -92 -142 -127 -181 -49 -52 -139 -126 -183 -150 -19 -10 -42 -24 -50 -30 -26 -18 -121 -54 -189 -70 -89 -22 -303 -22 -392 0 -68 16 -163 52 -189 70 -8 6 -31 20 -50 30 -44 24 -134 98 -183 150 -35 39 -127 169 -127 181 0 3 -9 24 -20 48 -18 39 -50 133 -50 150 0 4 29 7 65 7 l65 0 0 175 0 175 -65 0 c-36 0 -65 4 -65 9 0 37 70 199 117 271 51 78 88 118 168 185 70 58 77 63 171 110 166 83 381 103 573 54z"/>
 <path d="M1262 1253 l3 -598 80 0 80 0 3 598 2 597 -85 0 -85 0 2 -597z"/>
 <path d="M1010 1255 l0 -475 80 0 80 0 0 475 0 475 -80 0 -80 0 0 -475z"/>
 <path d="M1520 1255 l0 -475 80 0 80 0 0 475 0 475 -80 0 -80 0 0 -475z"/>
 <path d="M750 1255 l0 -315 85 0 85 0 0 315 0 315 -85 0 -85 0 0 -315z"/>
 <path d="M1770 1255 l0 -315 85 0 85 0 0 315 0 315 -85 0 -85 0 0 -315z"/>
 <path d="M2720 1666 c0 -32 5 -48 15 -52 29 -12 35 -79 35 -424 0 -297 -2 -349 -16 -368 -8 -12 -23 -22 -33 -22 -40 0 -56 -51 -22 -70 24 -12 420 -14 439 -1 22 14 9 53 -23 71 l-30 17 -5 354 c-6 388 -6 388 -68 452 -45 46 -121 75 -218 84 l-74 6 0 -47z"/>
 <path d="M3563 1700 c-146 -29 -270 -149 -320 -310 -27 -87 -24 -284 5 -377 43 -137 160 -264 270 -292 103 -26 102 -26 102 14 0 28 -7 42 -30 62 l-30 25 0 380 0 380 30 30 c22 21 30 39 30 64 0 19 -3 34 -7 33 -5 -1 -27 -5 -50 -9z"/>
 <path d="M3680 1671 c0 -31 4 -41 21 -46 45 -15 49 -51 49 -424 0 -204 -4 -360 -10 -375 -5 -15 -21 -31 -35 -38 -21 -9 -25 -18 -25 -50 l0 -40 43 7 c167 28 296 154 343 336 22 83 22 244 1 326 -35 133 -111 236 -215 291 -45 23 -136 52 -167 52 -3 0 -5 -18 -5 -39z"/>
 <path d="M8643 1700 c-146 -29 -270 -149 -320 -310 -27 -87 -24 -284 5 -377 43 -137 160 -264 270 -292 103 -26 102 -26 102 14 0 28 -7 42 -30 62 l-30 25 0 380 0 380 30 30 c22 21 30 39 30 64 0 19 -3 34 -7 33 -5 -1 -27 -5 -50 -9z"/>
 <path d="M8760 1671 c0 -31 4 -41 21 -46 45 -15 49 -51 49 -424 0 -204 -4 -360 -10 -375 -5 -15 -21 -31 -35 -38 -21 -9 -25 -18 -25 -50 l0 -40 43 7 c167 28 296 154 343 336 22 83 22 244 1 326 -35 133 -111 236 -215 291 -45 23 -136 52 -167 52 -3 0 -5 -18 -5 -39z"/>
 <path d="M10767 1695 c-41 -14 -81 -47 -100 -80 -6 -11 -14 -82 -17 -157 -7 -144 -18 -180 -60 -193 -15 -5 -20 -15 -20 -43 0 -32 5 -39 33 -52 39 -18 44 -39 46 -170 1 -126 -10 -166 -55 -187 -30 -15 -34 -21 -34 -55 l0 -38 53 0 c72 0 173 18 211 37 91 46 145 145 131 241 -14 95 -65 157 -155 189 -28 10 -50 21 -50 24 0 4 21 12 48 19 62 15 110 45 133 84 15 25 19 51 19 133 0 62 4 104 11 108 6 4 21 -3 34 -15 25 -24 51 -22 61 5 17 42 -64 135 -133 154 -51 15 -110 13 -156 -4z"/>
 <path d="M11325 1685 c-85 -30 -93 -31 -121 -4 -27 26 -50 20 -64 -16 -6 -15 -10 -86 -10 -160 0 -117 2 -136 19 -156 28 -34 48 -18 75 57 39 107 101 183 174 213 28 12 32 18 32 52 0 47 -7 48 -105 14z"/>
 <path d="M11490 1670 c0 -36 3 -41 34 -54 50 -21 76 -54 76 -97 0 -61 -37 -93 -187 -165 -207 -98 -275 -178 -276 -324 -1 -165 96 -284 261 -319 30 -6 58 -9 63 -5 5 3 9 20 9 38 0 28 -5 36 -30 46 -42 17 -60 47 -60 96 0 60 28 84 193 163 120 58 152 78 190 120 54 61 77 122 77 207 0 158 -98 275 -267 319 -81 21 -83 21 -83 -25z"/>
 <path d="M2563 1679 c-113 -43 -179 -167 -139 -262 42 -101 167 -125 242 -46 25 26 29 38 29 89 0 51 -4 63 -29 89 -16 17 -38 33 -48 37 -26 8 -22 23 7 30 21 5 25 12 25 45 0 46 -9 48 -87 18z"/>
 <path d="M4192 1678 c-21 -21 -13 -46 23 -67 l35 -20 0 -383 c0 -211 -4 -388 -8 -393 -4 -6 -19 -16 -34 -22 -29 -13 -36 -41 -16 -61 8 -8 66 -12 195 -12 l183 0 0 434 c0 465 -2 447 53 460 29 7 38 41 15 64 -17 17 -429 17 -446 0z"/>
 <path d="M5122 1678 c-21 -21 -13 -46 23 -67 l35 -20 0 -383 c0 -211 -4 -388 -8 -393 -4 -6 -19 -16 -34 -22 -29 -13 -36 -41 -16 -61 8 -8 66 -12 195 -12 l183 0 0 434 c0 465 -2 447 53 460 29 7 38 41 15 64 -17 17 -429 17 -446 0z"/>
 <path d="M6052 1678 c-20 -20 -13 -48 16 -61 15 -6 30 -16 34 -22 4 -5 8 -181 8 -390 0 -209 -4 -385 -8 -390 -4 -6 -19 -16 -34 -22 -29 -13 -36 -41 -16 -61 8 -8 66 -12 195 -12 l183 0 0 485 0 485 -183 0 c-129 0 -187 -4 -195 -12z"/>
 <path d="M6492 1654 c3 -33 6 -37 56 -53 67 -23 124 -77 154 -147 25 -59 53 -77 75 -48 9 13 13 56 13 151 l0 133 -151 0 -150 0 3 -36z"/>
 <path d="M7286 1674 c-20 -19 -6 -51 28 -64 13 -5 26 -16 30 -25 3 -9 6 -183 6 -386 0 -356 -1 -370 -20 -389 -11 -11 -24 -20 -30 -20 -5 0 -14 -9 -20 -19 -7 -15 -6 -23 6 -35 13 -14 47 -16 214 -16 109 0 205 3 214 6 29 11 19 50 -19 73 l-35 20 0 386 0 386 35 20 c36 21 44 46 23 67 -9 9 -70 12 -214 12 -171 0 -205 -2 -218 -16z"/>
 <path d="M7782 1678 c-20 -20 -14 -45 15 -66 l28 -20 -59 -179 c-38 -117 -56 -187 -52 -201 4 -12 52 -84 106 -161 55 -76 102 -150 105 -164 10 -40 -3 -66 -46 -87 -40 -21 -50 -45 -27 -68 18 -18 298 -17 322 1 31 23 14 49 -54 88 -65 37 -169 146 -170 179 0 8 49 143 109 300 91 235 115 290 140 311 33 27 39 47 19 67 -17 17 -419 17 -436 0z"/>
 <path d="M9272 1678 c-20 -20 -13 -48 16 -61 15 -6 30 -16 34 -22 4 -5 8 -181 8 -390 0 -209 -4 -385 -8 -390 -4 -6 -19 -16 -34 -22 -29 -13 -36 -41 -16 -61 8 -8 66 -12 195 -12 l183 0 0 485 0 485 -183 0 c-129 0 -187 -4 -195 -12z"/>
 <path d="M9712 1654 c3 -33 6 -37 56 -53 67 -23 124 -77 154 -147 25 -59 53 -77 75 -48 9 13 13 56 13 151 l0 133 -151 0 -150 0 3 -36z"/>
 <path d="M10132 1678 c-21 -21 -13 -46 23 -67 l35 -20 0 -383 c0 -211 -4 -388 -8 -393 -4 -6 -19 -16 -34 -22 -29 -13 -36 -41 -16 -61 8 -8 66 -12 195 -12 l183 0 0 434 c0 464 -2 447 51 460 33 7 43 39 20 60 -15 13 -52 16 -227 16 -150 0 -213 -3 -222 -12z"/>
 <path d="M6584 1353 c-8 -21 -19 -48 -24 -61 -6 -13 -23 -31 -40 -40 -25 -14 -30 -23 -30 -56 0 -32 6 -44 36 -70 20 -18 44 -51 53 -76 14 -37 21 -45 41 -45 l25 0 0 190 c0 190 0 190 -23 193 -18 3 -25 -4 -38 -35z"/>
 <path d="M9804 1353 c-8 -21 -19 -48 -24 -61 -6 -13 -23 -31 -40 -40 -25 -14 -30 -23 -30 -56 0 -32 6 -44 36 -70 20 -18 44 -51 53 -76 14 -37 21 -45 41 -45 l25 0 0 190 c0 190 0 190 -23 193 -18 3 -25 -4 -38 -35z"/>
 <path d="M4630 1282 c0 -31 5 -40 30 -54 17 -9 35 -29 40 -43 13 -34 13 -306 0 -340 -6 -15 -23 -32 -40 -38 -26 -10 -30 -16 -30 -51 l0 -39 80 7 c204 17 305 113 305 291 0 69 -4 88 -30 140 -50 101 -132 146 -287 159 l-68 5 0 -37z"/>
 <path d="M5560 1282 c0 -31 5 -40 30 -54 17 -9 35 -29 40 -43 13 -34 13 -306 0 -340 -6 -15 -23 -32 -40 -38 -26 -10 -30 -16 -30 -51 l0 -39 80 7 c204 17 305 113 305 291 0 69 -4 88 -30 140 -50 101 -132 146 -287 159 l-68 5 0 -37z"/>
 <path d="M11743 1028 c-6 -7 -16 -31 -23 -53 -27 -84 -98 -163 -167 -186 -29 -9 -33 -15 -33 -45 0 -32 2 -34 33 -34 17 1 57 9 87 20 71 25 78 25 102 -5 23 -30 44 -32 58 -6 15 28 13 294 -2 309 -16 16 -43 15 -55 0z"/>
 <path d="M6705 974 c-8 -20 -15 -39 -15 -43 0 -4 -14 -23 -31 -44 -33 -40 -83 -70 -136 -82 -30 -6 -33 -10 -33 -46 l0 -39 145 0 145 0 0 133 c0 137 -5 157 -42 157 -11 0 -23 -14 -33 -36z"/>
 <path d="M9925 974 c-8 -20 -15 -39 -15 -43 0 -4 -14 -23 -31 -44 -33 -40 -83 -70 -136 -82 -30 -6 -33 -10 -33 -46 l0 -39 145 0 145 0 0 133 c0 137 -5 157 -42 157 -11 0 -23 -14 -33 -36z"/>
 </g>
<g id="layer2" fill="#ffffff" stroke="none">
 <path d="M0 1250 l0 -1250 6085 0 6085 0 0 1250 0 1250 -6085 0 -6085 0 0 -1250z m1585 1001 c94 -24 274 -104 335 -150 195 -146 317 -310 386 -521 144 -435 -11 -902 -386 -1170 -65 -47 -176 -101 -265 -131 -318 -106 -693 -35 -950 181 -285 239 -424 613 -360 965 51 282 186 497 425 676 64 48 242 126 335 148 50 11 99 22 110 25 54 13 283 -2 370 -23z m1337 -571 c58 -21 118 -76 140 -125 9 -22 14 -125 18 -384 l5 -354 30 -17 c32 -18 45 -57 23 -71 -19 -13 -415 -11 -439 1 -34 19 -18 70 22 70 10 0 25 10 33 22 14 19 16 71 16 368 0 345 -6 412 -35 424 -10 4 -15 20 -15 52 l0 47 74 -6 c41 -4 98 -16 128 -27z m698 -4 c0 -25 -8 -43 -30 -64 l-30 -30 0 -380 0 -380 30 -25 c23 -20 30 -34 30 -62 0 -40 1 -40 -102 -14 -110 28 -227 155 -270 292 -29 93 -32 290 -5 377 56 180 186 292 370 319 4 1 7 -14 7 -33z m122 23 c158 -33 279 -156 325 -332 21 -82 21 -243 -1 -326 -47 -182 -176 -308 -343 -336 l-43 -7 0 40 c0 32 4 41 25 50 14 7 30 23 35 38 6 15 10 171 10 375 0 373 -4 409 -49 424 -17 5 -21 15 -21 46 0 21 2 39 5 39 2 0 28 -5 57 -11z m4958 -23 c0 -25 -8 -43 -30 -64 l-30 -30 0 -380 0 -380 30 -25 c23 -20 30 -34 30 -62 0 -40 1 -40 -102 -14 -110 28 -227 155 -270 292 -29 93 -32 290 -5 377 56 180 186 292 370 319 4 1 7 -14 7 -33z m122 23 c158 -33 279 -156 325 -332 21 -82 21 -243 -1 -326 -47 -182 -176 -308 -343 -336 l-43 -7 0 40 c0 32 4 41 25 50 14 7 30 23 35 38 6 15 10 171 10 375 0 373 -4 409 -49 424 -17 5 -21 15 -21 46 0 21 2 39 5 39 2 0 28 -5 57 -11z m2101 0 c69 -19 150 -112 133 -154 -10 -27 -36 -29 -61 -5 -13 12 -28 19 -34 15 -7 -4 -11 -46 -11 -108 0 -82 -4 -108 -19 -133 -23 -39 -71 -69 -133 -84 -27 -7 -48 -15 -48 -19 0 -3 22 -14 50 -24 90 -32 141 -94 155 -189 14 -96 -40 -195 -131 -241 -38 -19 -139 -37 -211 -37 l-53 0 0 38 c0 34 4 40 34 55 45 21 56 61 55 187 -2 131 -7 152 -46 170 -28 13 -33 20 -33 52 0 28 5 38 20 43 42 13 53 49 60 193 3 75 11 146 17 157 43 77 153 113 256 84z m507 -28 c0 -34 -4 -40 -32 -52 -73 -30 -135 -106 -174 -213 -27 -75 -47 -91 -75 -57 -17 20 -19 39 -19 156 0 74 4 145 10 160 14 36 37 42 64 16 28 -27 36 -26 121 4 98 34 105 33 105 -14z m143 24 c169 -44 267 -161 267 -319 0 -85 -23 -146 -77 -207 -38 -42 -70 -62 -190 -120 -165 -79 -193 -103 -193 -163 0 -49 18 -79 60 -96 25 -10 30 -18 30 -46 0 -18 -4 -35 -9 -38 -5 -4 -33 -1 -63 5 -165 35 -262 154 -261 319 1 146 69 226 276 324 150 72 187 104 187 165 0 43 -26 76 -76 97 -31 13 -34 18 -34 54 0 46 2 46 83 25z m-8923 -34 c0 -33 -4 -40 -25 -45 -29 -7 -33 -22 -7 -30 10 -4 32 -20 48 -37 25 -26 29 -38 29 -89 0 -51 -4 -63 -29 -89 -75 -79 -200 -55 -242 46 -40 95 26 219 139 262 78 30 87 28 87 -18z m1988 17 c23 -23 14 -57 -15 -64 -55 -13 -53 5 -53 -460 l0 -434 -183 0 c-129 0 -187 4 -195 12 -20 20 -13 48 16 61 15 6 30 16 34 22 4 5 8 182 8 393 l0 383 -35 20 c-36 21 -44 46 -23 67 17 17 429 17 446 0z m930 0 c23 -23 14 -57 -15 -64 -55 -13 -53 5 -53 -460 l0 -434 -183 0 c-129 0 -187 4 -195 12 -20 20 -13 48 16 61 15 6 30 16 34 22 4 5 8 182 8 393 l0 383 -35 20 c-36 21 -44 46 -23 67 17 17 429 17 446 0z m862 -473 l0 -485 -183 0 c-129 0 -187 4 -195 12 -20 20 -13 48 16 61 15 6 30 16 34 22 4 5 8 181 8 390 0 209 -4 385 -8 390 -4 6 -19 16 -34 22 -29 13 -36 41 -16 61 8 8 66 12 195 12 l183 0 0 -485z m360 352 c0 -95 -4 -138 -13 -151 -22 -29 -50 -11 -75 48 -30 70 -87 124 -154 147 -50 16 -53 20 -56 53 l-3 36 150 0 151 0 0 -133z m928 121 c21 -21 13 -46 -23 -67 l-35 -20 0 -386 0 -386 35 -20 c38 -23 48 -62 19 -73 -9 -3 -105 -6 -214 -6 -167 0 -201 2 -214 16 -12 12 -13 20 -6 35 6 10 15 19 20 19 6 0 19 9 30 20 19 19 20 33 20 389 0 203 -3 377 -6 386 -4 9 -17 20 -30 25 -34 13 -48 45 -28 64 13 14 47 16 218 16 144 0 205 -3 214 -12z m500 0 c20 -20 14 -40 -19 -67 -25 -21 -49 -76 -140 -311 -60 -157 -109 -292 -109 -300 1 -33 105 -142 170 -179 68 -39 85 -65 54 -88 -24 -18 -304 -19 -322 -1 -23 23 -13 47 27 68 43 21 56 47 46 87 -3 14 -50 88 -105 164 -54 77 -102 149 -106 161 -4 14 14 84 52 201 l59 179 -28 20 c-29 21 -35 46 -15 66 17 17 419 17 436 0z m1432 -473 l0 -485 -183 0 c-129 0 -187 4 -195 12 -20 20 -13 48 16 61 15 6 30 16 34 22 4 5 8 181 8 390 0 209 -4 385 -8 390 -4 6 -19 16 -34 22 -29 13 -36 41 -16 61 8 8 66 12 195 12 l183 0 0 -485z m360 352 c0 -95 -4 -138 -13 -151 -22 -29 -50 -11 -75 48 -30 70 -87 124 -154 147 -50 16 -53 20 -56 53 l-3 36 150 0 151 0 0 -133z m571 117 c23 -21 13 -53 -20 -60 -53 -13 -51 4 -51 -460 l0 -434 -183 0 c-129 0 -187 4 -195 12 -20 20 -13 48 16 61 15 6 30 16 34 22 4 5 8 182 8 393 l0 383 -35 20 c-36 21 -44 46 -23 67 9 9 72 12 222 12 175 0 212 -3 227 -16z m-3936 -479 l0 -190 -25 0 c-20 0 -27 8 -41 45 -9 25 -33 58 -53 76 -30 26 -36 38 -36 70 0 33 5 42 30 56 17 9 34 27 40 40 5 13 16 40 24 61 13 31 20 38 38 35 23 -3 23 -3 23 -193z m3220 0 l0 -190 -25 0 c-20 0 -27 8 -41 45 -9 25 -33 58 -53 76 -30 26 -36 38 -36 70 0 33 5 42 30 56 17 9 34 27 40 40 5 13 16 40 24 61 13 31 20 38 38 35 23 -3 23 -3 23 -193z m-5048 99 c75 -21 132 -68 168 -139 26 -52 30 -71 30 -140 0 -178 -101 -274 -305 -291 l-80 -7 0 39 c0 35 4 41 30 51 17 6 34 23 40 38 13 34 13 306 0 340 -5 14 -23 34 -40 43 -25 14 -30 23 -30 54 l0 37 68 -5 c37 -3 90 -12 119 -20z m930 0 c75 -21 132 -68 168 -139 26 -52 30 -71 30 -140 0 -178 -101 -274 -305 -291 l-80 -7 0 39 c0 35 4 41 30 51 17 6 34 23 40 38 13 34 13 306 0 340 -5 14 -23 34 -40 43 -25 14 -30 23 -30 54 l0 37 68 -5 c37 -3 90 -12 119 -20z m6051 -266 c15 -15 17 -281 2 -309 -14 -26 -35 -24 -58 6 -24 30 -31 30 -102 5 -30 -11 -70 -19 -87 -20 -31 0 -33 2 -33 34 0 30 4 36 33 45 69 23 140 102 167 186 7 22 17 46 23 53 12 15 39 16 55 0z m-5030 -30 c8 -8 12 -55 12 -145 l0 -133 -145 0 -145 0 0 39 c0 36 3 40 33 46 53 12 103 42 136 82 17 21 31 40 31 44 0 4 7 23 15 43 16 37 40 47 63 24z m3220 0 c8 -8 12 -55 12 -145 l0 -133 -145 0 -145 0 0 39 c0 36 3 40 33 46 53 12 103 42 136 82 17 21 31 40 31 44 0 4 7 23 15 43 16 37 40 47 63 24z"/>
 <path d="M1240 2080 c-93 -11 -173 -35 -254 -75 -94 -47 -101 -52 -171 -110 -80 -67 -117 -107 -168 -185 -47 -72 -117 -234 -117 -271 0 -5 29 -9 65 -9 l65 0 0 -175 0 -175 -65 0 c-36 0 -65 -3 -65 -7 0 -17 32 -111 50 -150 11 -24 20 -45 20 -48 0 -12 92 -142 127 -181 49 -52 139 -126 183 -150 19 -10 42 -24 50 -30 26 -18 121 -54 189 -70 89 -22 303 -22 392 0 68 16 163 52 189 70 8 6 31 20 50 30 44 24 134 98 183 150 35 39 127 169 127 181 0 3 9 24 20 48 18 39 50 133 50 150 0 4 -31 7 -70 7 l-70 0 0 175 0 175 70 0 c39 0 70 4 70 9 0 37 -70 199 -117 271 -51 78 -88 118 -168 185 -70 58 -77 63 -171 110 -129 64 -310 94 -464 75z m188 -827 l-3 -598 -80 0 -80 0 -3 598 -2 597 85 0 85 0 -2 -597z m-258 2 l0 -475 -80 0 -80 0 0 475 0 475 80 0 80 0 0 -475z m510 0 l0 -475 -80 0 -80 0 0 475 0 475 80 0 80 0 0 -475z m-760 0 l0 -315 -85 0 -85 0 0 315 0 315 85 0 85 0 0 -315z m1020 0 l0 -315 -85 0 -85 0 0 315 0 315 85 0 85 0 0 -315z"/>
 </g>

</svg>